<svg width="120" height="100" viewBox="0 0 120 100" fill="none" xmlns="http://www.w3.org/2000/svg">
<path d="M44.4448 35V42.8139L44.3009 42.7862C43.6117 42.6535 42.8948 42.586 42.1702 42.586C40.784 42.586 39.4033 42.825 38.0724 43.2973C36.7427 43.7686 35.5412 44.4922 34.5024 45.4469C33.4647 46.4028 32.6139 47.5898 31.9767 48.9772C31.3395 50.36 31.0164 51.9919 31.0164 53.8239C31.0164 55.7677 31.3671 57.4681 32.0586 58.8809C32.7511 60.2947 33.6716 61.4663 34.7922 62.3669C35.9151 63.2674 37.194 63.9423 38.5946 64.3715C39.9985 64.803 41.429 65.0198 42.8439 65.0198C44.5731 65.0198 46.1684 64.8649 47.5911 64.5585C48.9851 64.2587 50.3757 63.8029 51.7176 63.2054V35H44.4448ZM44.4448 58.5999L44.3507 58.622C43.8374 58.7415 43.3031 58.8012 42.761 58.8012C41.9843 58.8012 41.2409 58.6187 40.5517 58.2602C39.858 57.8985 39.2938 57.342 38.8767 56.6074C38.4608 55.875 38.2483 54.9236 38.2483 53.7808C38.2483 52.6125 38.4519 51.6401 38.8535 50.8944C39.2584 50.1421 39.8237 49.5856 40.534 49.2382C41.2365 48.8931 42.0286 48.7183 42.8893 48.7183C43.3883 48.7183 43.8806 48.7758 44.353 48.8909L44.4448 48.913V58.5999ZM73.8792 47.5943C72.8835 45.9337 71.536 44.657 69.8732 43.7985C69.0402 43.367 68.1607 43.0451 67.2391 42.8283C66.3176 42.6114 65.354 42.5019 64.355 42.5019C62.3581 42.5019 60.5006 42.9378 58.8367 43.7985C57.1739 44.657 55.8198 45.9337 54.8098 47.5965C53.7975 49.2571 53.2864 51.3248 53.2864 53.7409C53.2864 56.1571 53.7986 58.2248 54.8098 59.8854C55.8198 61.5482 57.1761 62.8326 58.8367 63.7055C60.5006 64.5784 62.357 65.0209 64.355 65.0209C66.3242 65.0209 68.174 64.5784 69.8522 63.7055C71.5272 62.8326 72.8835 61.5471 73.8792 59.8865C74.8771 58.2237 75.3815 56.156 75.3815 53.7398C75.3815 51.3248 74.8771 49.2571 73.8792 47.5943ZM67.6938 56.5797C67.5135 56.9537 67.3044 57.2834 67.0676 57.5644C66.8309 57.8431 66.5676 58.0744 66.2766 58.2569C65.6969 58.6187 65.0497 58.8023 64.3539 58.8023C63.658 58.8023 63.0108 58.6187 62.4311 58.2569C61.8503 57.894 61.3735 57.3309 61.0139 56.5797C60.6555 55.8374 60.4752 54.8815 60.4752 53.7409C60.4752 52.5727 60.6555 51.6102 61.0139 50.8789C61.3735 50.1443 61.8503 49.5878 62.4311 49.225C63.0108 48.8632 63.658 48.6796 64.3539 48.6796C65.0497 48.6796 65.6947 48.8632 66.2766 49.225C66.8563 49.5878 67.3343 50.1454 67.6938 50.8789C68.0523 51.6113 68.2348 52.5738 68.2348 53.7409C68.2348 54.8804 68.0523 55.8352 67.6938 56.5797ZM96.7554 48.6995C96.1602 47.3287 95.3382 46.1782 94.3149 45.2799C93.2904 44.3804 92.1454 43.7067 90.9141 43.2763C89.6795 42.8449 88.4061 42.628 87.1327 42.628C86.1592 42.628 85.2465 42.7298 84.4145 42.9278L84.2663 42.9632V35H76.9503V63.2486C78.2646 63.846 79.6397 64.293 81.0337 64.5806C82.4553 64.8727 84.024 65.0209 85.6967 65.0209C87.1947 65.0209 88.6816 64.7753 90.1131 64.2896C91.5414 63.804 92.8424 63.0727 93.9808 62.1157C95.1158 61.1599 96.023 59.9595 96.6735 58.5468C97.324 57.1329 97.6548 55.459 97.6548 53.5706C97.6526 51.712 97.3506 50.0713 96.7554 48.6995ZM89.8321 56.5477C89.6098 56.9216 89.3509 57.2513 89.0577 57.5389C88.7634 57.8243 88.436 58.0655 88.0764 58.2602C87.3562 58.6474 86.5851 58.8444 85.7797 58.8444C85.3118 58.8444 84.8338 58.7835 84.3559 58.6618L84.2652 58.6375V48.9583L84.3592 48.9373C84.8692 48.8212 85.418 48.7625 85.991 48.7625C86.7942 48.7625 87.5454 48.9373 88.2213 49.2825C88.9006 49.6299 89.456 50.172 89.8753 50.8933C90.2912 51.6135 90.5036 52.5428 90.5036 53.6569C90.5036 54.8262 90.278 55.7998 89.8321 56.5477ZM119.143 48.5745C118.858 47.9306 118.523 47.3332 118.14 46.7856C117.758 46.2379 117.325 45.7434 116.849 45.2987C115.893 44.4125 114.798 43.731 113.593 43.2741C112.39 42.8172 111.117 42.5849 109.815 42.5849C107.903 42.5849 106.119 43.0418 104.512 43.9423C102.905 44.8429 101.6 46.1339 100.63 47.7834C99.6594 49.4319 99.1671 51.4066 99.1671 53.6558C99.1671 55.4325 99.4913 57.0422 100.127 58.4395C100.765 59.8389 101.656 61.0315 102.778 61.9874C103.901 62.9444 105.216 63.6834 106.687 64.1823C108.159 64.6824 109.779 64.9357 111.505 64.9357C112.754 64.9357 113.995 64.7952 115.193 64.5164C116.365 64.2454 117.498 63.8338 118.563 63.2951V57.5599C117.47 58.0567 116.414 58.4527 115.422 58.7337C114.374 59.0302 113.284 59.1829 112.18 59.1829C110.985 59.1829 109.925 58.9793 109.028 58.5811C108.124 58.1795 107.395 57.561 106.864 56.7413C106.702 56.4923 106.561 56.2091 106.441 55.896L106.38 55.7312H119.838C119.864 55.3584 119.897 54.9512 119.937 54.4899C119.979 54.0186 120 53.5374 120 53.065C119.999 51.3723 119.711 49.8622 119.143 48.5745ZM106.255 51.369L106.294 51.2185C106.368 50.9276 106.459 50.6654 106.558 50.4386C106.92 49.6321 107.396 49.0247 107.973 48.6342C108.554 48.2437 109.204 48.0434 109.901 48.0434C110.509 48.0434 111.096 48.1983 111.647 48.5014C112.199 48.8068 112.67 49.2825 113.045 49.9186C113.261 50.287 113.413 50.7273 113.495 51.2274L113.519 51.3679H106.255V51.369ZM16.3733 44.6725L10.9569 58.1275H17.4697L19.7498 64.6414H0L12.2712 35.323H20.8096L33.041 64.6414H24.3509L16.3733 44.6725Z" fill="#14142B"/>
</svg>
