<svg width="120" height="100" viewBox="0 0 120 100" fill="none" xmlns="http://www.w3.org/2000/svg">
<g clip-path="url(#clip0_658_1499)">
<path d="M29.4839 45.6129C27.7742 48.0322 24.9677 49.6451 21.7742 49.6451C16.5806 49.6451 12.3871 45.4193 12.3871 40.258C12.3871 35.0967 16.5806 30.8709 21.7742 30.8709C23.6129 30.8709 25.3226 31.387 26.7419 32.2903L21.7742 40.2258L31.129 34.8387C29.6129 32.5161 27.3871 30.7096 24.7419 29.7419C22.6451 28.9677 20.4193 28.5483 18.0645 28.5483C15.7097 28.5483 13.4516 28.9677 11.3871 29.7419C9.22579 30.5483 7.35482 31.9032 5.93547 33.6129C4.41934 35.4193 3.51611 37.7096 3.51611 40.2258C3.51611 42.7419 4.41934 45.0322 5.90321 46.8387C7.32257 48.5806 9.22579 49.9354 11.3548 50.7096C13.4516 51.4838 15.7097 51.9032 18.0322 51.9032C19.5484 51.9032 21 51.7419 22.3871 51.4193C25.2903 50.7419 27.871 49.1935 29.8387 47.0645L29.4839 45.6129Z" fill="#14152A"/>
<path d="M68.9032 32.5483C68.387 32.5483 67.9032 32.6774 67.4516 32.8709L62 35.4193C61.7419 33.8064 60.3225 32.5806 58.6451 32.5806C58.129 32.5806 57.6451 32.7096 57.1935 32.9032L50.5483 36H55.2258V51.3871H62.0645V37.6774C62.0645 36.7419 62.8387 35.9677 63.7741 35.9677C64.7096 35.9677 65.4838 36.7419 65.4838 37.6774V51.3548H72.3225V35.9677C72.3225 34.0645 70.8064 32.5483 68.9032 32.5483Z" fill="#14152A"/>
<path d="M111.774 32.5483C111.258 32.5483 110.774 32.6774 110.323 32.8709L104.871 35.4193C104.613 33.8064 103.194 32.5806 101.484 32.5806C100.968 32.5806 100.484 32.7096 100.032 32.9032L93.3872 36H98.0646V51.3871H104.903V37.6774C104.903 36.7419 105.678 35.9677 106.613 35.9677C107.548 35.9677 108.323 36.7419 108.323 37.6774V51.3548H115.161V35.9677C115.194 34.0645 113.678 32.5483 111.774 32.5483Z" fill="#14152A"/>
<path d="M84.8386 32.5483C79.4837 32.5483 75.1611 36.9032 75.1611 42.2258C75.1611 47.5483 79.4837 51.9032 84.8386 51.9032C90.1934 51.9032 94.516 47.5806 94.516 42.2258C94.516 36.8709 90.1934 32.5483 84.8386 32.5483ZM87.0644 50.4838C85.9353 50.7741 84.7418 50.129 84.4515 48.9677L81.1289 36.5806C80.8386 35.4516 81.516 34.258 82.645 33.9677C83.774 33.6451 84.9676 34.3225 85.2579 35.4838L88.5805 47.8709C88.8708 49 88.1934 50.1612 87.0644 50.4838Z" fill="#14152A"/>
<path d="M44.258 45.6451C44.258 47.5161 42.7418 49.0645 40.8386 49.0645C38.9676 49.0645 37.4192 47.5483 37.4192 45.6451C37.4192 43.7419 38.9354 42.2258 40.8386 42.2258C42.7418 42.2258 44.258 43.7419 44.258 45.6451ZM46.0321 51.3548H52.8709L48.9354 36.6774C48.2902 34.3225 46.1289 32.5483 43.5805 32.5483C42.9031 32.5483 42.258 32.6774 41.6773 32.8709L33.1934 35.9677H41.9031L43.387 41.5161C41.9354 40.258 40.0644 39.5161 37.9999 39.5161C36.4515 39.5161 35.0321 39.9032 33.7741 40.5806C32.8063 41.129 31.9676 41.9032 31.387 42.8709C30.9031 43.6774 30.6128 44.6129 30.6128 45.6451C30.6128 46.6774 30.9031 47.6129 31.387 48.4193C31.9676 49.3548 32.8063 50.1612 33.7741 50.7096C35.0321 51.387 36.4838 51.7741 37.9999 51.7741C40.9354 51.7741 43.5483 50.3225 45.1612 48.129L46.0321 51.3548Z" fill="#14152A"/>
<path d="M11.1612 62.8388C10.8709 61.3549 9.87087 60.5807 8.58055 60.5807C6.387 60.5807 5.48378 62.6452 5.48378 64.871C5.48378 67.2904 6.25797 69.2904 8.58055 69.2904C10.1612 69.2904 11.0644 68 11.1935 66.2581H12.6128C12.3547 68.871 11.0967 70.4839 8.48378 70.4839C5.45152 70.4839 4.09668 68.0646 4.09668 65C4.09668 61.9355 5.54829 59.4517 8.61281 59.4517C10.7096 59.4517 12.258 60.6452 12.5806 62.871L11.1612 62.8388Z" fill="#14152A"/>
<path d="M96.9678 62.8388C96.6775 61.3549 95.6775 60.5807 94.3872 60.5807C92.1937 60.5807 91.2904 62.6452 91.2904 64.871C91.2904 67.2904 92.0646 69.2904 94.3872 69.2904C95.9678 69.2904 96.8711 68 97.0001 66.2581H98.4195C98.1614 68.871 96.9033 70.4839 94.2904 70.4839C91.2582 70.4839 89.9033 68.0646 89.9033 65C89.9033 61.9355 91.3549 59.4517 94.4194 59.4517C96.5162 59.4517 98.0646 60.6452 98.3872 62.871L96.9678 62.8388Z" fill="#14152A"/>
<path d="M36.8707 59.4194C40.0319 59.4194 41.419 62.0969 41.419 64.9356C41.419 67.7743 40.0319 70.4517 36.8707 70.4517C33.7094 70.4517 32.3223 67.7743 32.3223 64.9356C32.3223 62.0969 33.7094 59.4194 36.8707 59.4194ZM36.8707 69.2904C39.1932 69.2904 39.9997 67.0646 39.9997 64.9356C39.9997 62.8065 39.161 60.5807 36.8707 60.5807C34.5803 60.5807 33.7416 62.8065 33.7416 64.9356C33.7416 67.0646 34.5481 69.2904 36.8707 69.2904Z" fill="#14152A"/>
<path d="M68.4839 59.6777H75.1613V60.8713H69.9032V64.2261H74.7742V65.4197H69.9032V69.0648H75.2258V70.2584H68.5161V59.6777H68.4839Z" fill="#14152A"/>
<path d="M86.9033 59.6777H88.3227V70.2261H86.9033V59.6777Z" fill="#14152A"/>
<path d="M108.838 59.6777H110.258V69.0648H115.225V70.2584H108.871V59.6777H108.838Z" fill="#14152A"/>
<path d="M20.5805 70.2261H22.0966L18.4192 59.6777H16.8708L13.1611 70.2261H14.5805L15.645 67.0326H19.5482L20.5805 70.2261ZM17.5805 61.0648L19.1289 65.8713H15.9998L17.5805 61.0648Z" fill="#14152A"/>
<path d="M29.3225 68.0326H29.3548V59.6777H30.6774V70.2261H29.129L24.4193 61.9681H24.387V70.2261H23.0645V59.6777H24.5483L29.3225 68.0326Z" fill="#14152A"/>
<path d="M49.3225 68.0326H49.3548V59.6777H50.6774V70.2261H49.1612L44.4515 61.9681H44.4193V70.2261H43.0645V59.6777H44.5806L49.3225 68.0326Z" fill="#14152A"/>
<path d="M64.3547 59.6777L61.4514 68.3552L58.5805 59.6777H56.6772V70.2261H57.9998V61.6455H58.0321L60.8708 70.2261H62.0643L64.9031 61.6455H64.9353V70.2261H66.2579V59.6777H64.3547Z" fill="#14152A"/>
<path d="M106.355 70.2261H107.871L104.161 59.6777H102.613L98.9033 70.2261H100.323L101.387 67.0326H105.29L106.355 70.2261ZM103.355 61.0648L104.903 65.8713H101.774L103.355 61.0648Z" fill="#14152A"/>
<path d="M77.3223 59.6777H80.419C83.6771 59.6777 85.2577 61.2906 85.2577 64.71C85.2577 68.1293 83.9674 70.2261 80.419 70.2261H77.3223V59.6777ZM78.7094 69.0648H80.6448C81.419 69.0648 83.8384 68.8068 83.8384 64.9035C83.8384 62.3874 83.0965 60.8713 80.6771 60.8713H78.7094V69.0648Z" fill="#14152A"/>
</g>
<defs>
<clipPath id="clip0_658_1499">
<rect width="120" height="100" fill="white"/>
</clipPath>
</defs>
</svg>
