<svg width="120" height="100" viewBox="0 0 120 100" fill="none" xmlns="http://www.w3.org/2000/svg">
<path d="M119.9 45.3H116.7L114.2 40L111.8 45.3H108.6L112.7 36.5H115.8L119.9 45.3Z" fill="#14142B"/>
<path d="M0.1 47.2C0.1 40.5 4.4 35.9 11.6 35.9C17.5 35.9 21 38.9 21.9 43.7L18.9 44C18.2 40.6 15.6 38.4 11.6 38.4C6.4 38.4 3.3 41.8 3.3 47.2C3.3 52.3 6.4 56.1 11.7 56.1C15.6 56.1 18.2 54.2 19.1 50.8L22 51.3C20.7 55.7 17.4 58.6 11.6 58.6C4.1 58.6 0.1 53.7 0.1 47.2ZM23.8 50.4C23.8 45.5 27.3 42.4 32.4 42.4C37.5 42.4 41 45.5 41 50.4C41 55.3 37.6 58.4 32.4 58.4C27.2 58.4 23.8 55.3 23.8 50.4ZM38.2 50.4C38.2 46.7 36 44.7 32.4 44.7C28.8 44.7 26.6 46.8 26.6 50.4C26.6 54 28.8 56.1 32.4 56.1C36 56.1 38.2 54.1 38.2 50.4ZM51.3 42.4C51.7 42.4 52.1 42.4 52.4 42.5V45.1C52.1 45.1 51.8 45 51.5 45C49.6 45 48.4 45.5 47.6 46.5C46.2 47.9 46 49.9 46 51.8V58H43.3V42.9H45.8V46.7C46.6 44.2 48.6 42.4 51.3 42.4ZM54.3 42.9H56.9V45.9C58.1 43.7 60.6 42.5 63.5 42.5C68.1 42.5 71.2 45.7 71.2 50.5C71.2 55.3 67.9 58.5 63.3 58.5C60.4 58.5 57.9 57.2 56.9 55.5V64H54.2V42.9H54.3ZM68.4 50.4C68.4 46.8 66.3 44.7 62.8 44.7C59.3 44.7 56.9 46.8 56.9 50.1V50.8C56.9 54 59.2 56.1 62.6 56.1C66.2 56.1 68.4 54 68.4 50.4ZM72.7 53.9C72.7 52.4 73.4 51.2 74.6 50.5C75.7 49.8 77.2 49.4 80.2 49.1L85.8 48.7V48.4C85.8 45.8 84.2 44.5 81.1 44.5C78.2 44.5 76.4 45.6 76.1 47.7H73.2C73.5 44.5 76.6 42.4 81.1 42.4C86.1 42.4 88.5 44.4 88.5 48.7V52.7C88.5 55.3 88.6 56.6 89 58H86.2C86 57.1 86 56.1 86 55C84.9 57.2 82.5 58.4 78.9 58.4C75.1 58.4 72.7 56.7 72.7 53.9ZM85.9 51.3V50.5L79.8 51.1C76.7 51.4 75.6 52.2 75.6 53.8C75.6 55.3 77.1 56.2 79.6 56.2C83.3 56.3 85.9 54.4 85.9 51.3ZM90.6 64V61.6C91.1 61.7 91.5 61.7 91.9 61.7C94.3 61.7 95.7 60.6 96.5 58.7L96.8 57.9L89.3 42.9H92.4L97.6 54C97.8 54.6 98 55.1 98.1 55.4C98.2 55 98.4 54.6 98.6 54L103.5 42.9H106.5L99.1 59C97.4 62.8 95.2 64.2 92.1 64.2C91.7 64.1 91.1 64.1 90.6 64Z" fill="#14142B"/>
</svg>
