<svg width="30" height="30" viewBox="0 0 30 30" fill="none" xmlns="http://www.w3.org/2000/svg">
<g clip-path="url(#clip0_6_324)">
<path d="M21.7208 0.00012207H8.27869C3.71382 0.00012207 0 3.71412 0 8.27899V21.7211C0 26.2861 3.71382 29.9999 8.27869 29.9999H21.7208C26.286 29.9999 29.9998 26.2859 29.9998 21.7211V8.27899C30 3.71412 26.286 0.00012207 21.7208 0.00012207ZM27.3383 21.7211C27.3383 24.8184 24.8183 27.3382 21.721 27.3382H8.27869C5.1815 27.3384 2.66173 24.8184 2.66173 21.7211V8.27899C2.66173 5.1818 5.1815 2.66185 8.27869 2.66185H21.7208C24.8181 2.66185 27.3381 5.1818 27.3381 8.27899V21.7211H27.3383Z" fill="white"/>
<path d="M14.9999 7.2702C10.7374 7.2702 7.26971 10.7379 7.26971 15.0004C7.26971 19.2627 10.7374 22.7302 14.9999 22.7302C19.2624 22.7302 22.7301 19.2627 22.7301 15.0004C22.7301 10.7379 19.2624 7.2702 14.9999 7.2702ZM14.9999 20.0683C12.2053 20.0683 9.93144 17.7949 9.93144 15.0002C9.93144 12.2054 12.2051 9.93175 14.9999 9.93175C17.7947 9.93175 20.0684 12.2054 20.0684 15.0002C20.0684 17.7949 17.7945 20.0683 14.9999 20.0683Z" fill="white"/>
<path d="M23.0543 5.01324C22.5415 5.01324 22.0377 5.22086 21.6755 5.58463C21.3116 5.94662 21.1024 6.45058 21.1024 6.96518C21.1024 7.47818 21.3117 7.98196 21.6755 8.34573C22.0375 8.70773 22.5415 8.91711 23.0543 8.91711C23.5689 8.91711 24.0711 8.70773 24.4348 8.34573C24.7986 7.98196 25.0062 7.47801 25.0062 6.96518C25.0062 6.45058 24.7986 5.94662 24.4348 5.58463C24.0728 5.22086 23.5689 5.01324 23.0543 5.01324Z" fill="white"/>
</g>
<defs>
<clipPath id="clip0_6_324">
<rect width="30" height="30" fill="white"/>
</clipPath>
</defs>
</svg>
