<svg width="120" height="100" viewBox="0 0 120 100" fill="none" xmlns="http://www.w3.org/2000/svg">
<g clip-path="url(#clip0_5_32)">
<path d="M4.16905 71.5659L6.80765 62.9864H4.07291L0.873688 73.3902H7.784L8.39541 71.5659H4.16905Z" fill="#14142B"/>
<path d="M12.3543 62.9864L9.15442 73.3902H11.9264L15.1249 62.9864H12.3543Z" fill="#14142B"/>
<path d="M94.0167 62.8749L90.4207 73.4153H93.1913L96.7866 62.8749H94.0167Z" fill="#14142B"/>
<path d="M23.2655 62.9864L21.2532 69.0312L19.6919 62.9844H16.9707L13.7721 73.3902H16.3085L18.316 67.4556L19.6709 73.3902H22.6033L25.8025 62.9864H23.2655Z" fill="#14142B"/>
<path d="M25.6881 68.4708C25.4769 69.1576 25.374 69.7389 25.374 70.2566C25.3746 70.8352 25.4992 71.3375 25.7606 71.8498C26.0707 72.4473 26.5033 72.8684 27.1147 73.1537C27.7261 73.4369 28.5238 73.5781 29.5434 73.5795C31.094 73.5781 32.5714 73.2868 34.1747 72.5676L35.6792 67.6753H31.4196L30.8759 69.4077H32.4488L31.7853 71.5605L31.6884 71.5943L31.6654 71.6017C31.247 71.7396 30.7994 71.77 30.3756 71.77C29.8251 71.7714 29.2902 71.6849 28.9727 71.3685C28.6544 71.0536 28.4114 70.6629 28.4134 70.112C28.4134 69.6132 28.5224 69.0265 28.7343 68.3377C29.1135 67.1014 29.6782 66.22 30.274 65.6171C30.8685 65.0115 31.7487 64.7262 32.6418 64.7282H32.6445C33.5518 64.7296 34.3203 64.8337 34.8856 65.3575L36.7862 63.9273C35.927 63.202 34.6974 62.8161 33.2349 62.8161C32.1245 62.8161 31.3411 62.9479 30.3011 63.3602C28.0085 64.2679 26.3848 66.2065 25.6881 68.4722V68.4708Z" fill="#14142B"/>
<path d="M64.3448 62.9796L62.3352 69.0251L60.7732 62.9796H58.0513L54.8521 73.3835H57.3898L59.3953 67.4489L60.7515 73.3835H63.6833L66.8819 62.9796H64.3448Z" fill="#14142B"/>
<path d="M66.6266 68.4648C66.4154 69.1508 66.3118 69.7308 66.3118 70.2492C66.3124 70.8285 66.4377 71.3307 66.6984 71.8437C67.0092 72.4399 67.4411 72.8603 68.0532 73.1456C68.664 73.4301 69.4616 73.5721 70.4819 73.5721C72.0325 73.5721 73.5092 73.2794 75.1132 72.5602L76.617 67.6685H72.3283L71.8144 69.3989H73.3859L72.7238 71.5531L72.6256 71.5862L72.6039 71.5943C72.1848 71.7308 71.7386 71.7626 71.3134 71.7626C70.7622 71.7633 70.228 71.6768 69.9098 71.3611C69.5929 71.0455 69.3505 70.6554 69.3519 70.1046V70.1032C69.3519 69.6044 69.4616 69.0177 69.6721 68.3296C70.0527 67.0947 70.616 66.2119 71.2118 65.609C71.8056 65.0047 72.6865 64.7181 73.5796 64.7208H73.5843C74.4896 64.7228 75.2581 64.8249 75.8248 65.3487L77.726 63.9192C76.8668 63.1939 75.6372 62.8073 74.1734 62.8073C73.0636 62.8086 71.9932 62.9134 70.9539 63.3237C68.6606 64.2308 67.3227 66.1984 66.6273 68.4641L66.6266 68.4648Z" fill="#14142B"/>
<path d="M39.0957 71.5659L41.7343 62.9844H38.9989L35.8004 73.3902H42.712L43.3207 71.5659H39.0957Z" fill="#14142B"/>
<path d="M48.8287 71.8623C48.8023 71.861 48.7831 71.8558 48.7692 71.8518C48.7805 71.8558 48.8023 71.8623 48.8287 71.8623Z" fill="#14142B"/>
<path d="M48.732 71.8335C48.7351 71.8348 48.737 71.8367 48.7426 71.8398C48.7357 71.8354 48.732 71.8329 48.732 71.8329V71.8335Z" fill="#14142B"/>
<path d="M54.7675 63.7367C54.1818 63.177 53.2129 62.7998 51.6726 62.7964C48.4943 62.8012 45.5585 64.7364 44.3986 68.4959C44.1908 69.1691 44.0906 69.7842 44.0906 70.3317C44.0946 71.3435 44.4237 72.1154 45.0778 72.6555C45.7332 73.1949 46.7427 73.5072 48.124 73.5092C50.2886 73.5072 51.8303 72.8083 52.9671 71.7356C54.1019 70.6615 54.8284 69.1995 55.2997 67.6692C55.4791 67.0866 55.5881 66.4809 55.5881 65.9091C55.5847 65.0594 55.3525 64.295 54.7675 63.736V63.7367ZM52.5345 65.9422C52.5331 66.489 52.3869 67.1967 52.0944 68.1532C51.6651 69.553 51.2433 70.454 50.7253 71.0252C50.2568 71.545 49.6961 71.766 49.0577 71.7998V71.8045H48.8505C48.3819 71.8032 47.9635 71.7254 47.6459 71.4611C47.3277 71.1921 47.176 70.7676 47.1774 70.2087V70.2012C47.1794 69.6537 47.3121 68.9562 47.5938 68.041C47.9175 66.9899 48.3393 66.1125 48.885 65.4853C49.3827 64.9114 50.0002 64.5484 50.7158 64.4923V64.4842H50.9163C51.3834 64.4856 51.7849 64.5512 52.091 64.7931C52.3977 65.0365 52.5358 65.4299 52.5352 65.9307V65.9415L52.5345 65.9422Z" fill="#14142B"/>
<path d="M82.8732 73.4152L85.7082 64.6586H82.6647L83.2415 62.8748H91.632L91.0551 64.6586H88.1572L85.3222 73.4152H82.8739H82.8732Z" fill="black"/>
<path d="M96.0594 73.4152L99.4719 62.8748H103.958C105.088 62.8748 105.876 62.9695 106.326 63.1587C106.777 63.3493 107.077 63.6853 107.228 64.1692C107.378 64.6532 107.352 65.2068 107.152 65.8307C106.895 66.6208 106.451 67.2738 105.818 67.7902C105.185 68.3052 104.383 68.6304 103.414 68.7642C103.788 69.0332 104.073 69.3266 104.27 69.6483C104.465 69.9694 104.685 70.5398 104.929 71.3597L105.551 73.4159H103.003L102.203 71.1218C101.922 70.3026 101.714 69.7869 101.582 69.5726C101.449 69.3597 101.283 69.2137 101.083 69.1346C100.882 69.0548 100.538 69.0156 100.047 69.0156H99.7651L98.3405 73.4159H96.0581L96.0594 73.4152ZM100.311 67.3333H101.739C102.761 67.3333 103.415 67.29 103.696 67.2035C103.978 67.1176 104.226 66.9683 104.438 66.7574C104.65 66.5458 104.808 66.2829 104.91 65.9665C105.025 65.6117 105.023 65.3258 104.903 65.1074C104.785 64.8898 104.562 64.7519 104.235 64.6938C104.069 64.6701 103.555 64.6586 102.69 64.6586H101.176L100.31 67.3333H100.311Z" fill="#14142B"/>
<path d="M107.885 73.4152L111.297 62.8748H119.126L118.549 64.6586H113.116L112.36 66.9939H117.397L116.822 68.7703H111.785L110.856 71.6389H116.49L115.917 73.4146H107.886L107.885 73.4152Z" fill="#14142B"/>
<path d="M28.2008 48.6554C28.9124 52.8286 34.8294 55.5607 43.3234 56.4069L43.9335 54.4623C38.5541 53.2436 35.2221 50.7778 34.6859 47.6395C33.6682 41.688 43.4683 34.4001 59.0277 31.6423L59.4543 30.2973C41.2001 33.1808 26.9807 41.5014 28.2008 48.6554Z" fill="#14142B"/>
<path d="M52.2907 53.3876L58.1035 34.7138H51.6204L44.3729 58.0704H66.5217L67.953 53.3876H52.2907Z" fill="#14142B"/>
<path d="M62.2195 47.215L68.3498 27.4225L61.8708 27.4212L54.28 51.8924H76.7673L78.2291 47.215H62.2195Z" fill="#14142B"/>
<path d="M92.9374 37.3323C92.4702 34.415 89.4558 32.1709 84.7948 30.8001C80.6835 29.5916 75.3854 29.0245 69.3085 29.2759L68.8292 30.8576C75.6054 30.9157 80.6077 32.25 83.748 34.4576C85.3717 35.5992 86.371 37.0714 86.6317 38.6855C87.1707 42.0327 84.3005 45.751 79.2691 48.6831L78.5426 51.0063C87.8538 47.1413 93.6795 41.9651 92.9381 37.3316L92.9374 37.3323Z" fill="#14142B"/>
</g>
<defs>
<clipPath id="clip0_5_32">
<rect width="120" height="100" fill="white"/>
</clipPath>
</defs>
</svg>
