<svg width="120" height="100" viewBox="0 0 120 100" fill="none" xmlns="http://www.w3.org/2000/svg">
<path d="M80.5488 47.819H83.6113L82.1103 44.2578L80.5488 47.819Z" fill="#14142B"/>
<path d="M59.8902 14.8945C40.5621 14.8945 24.8926 30.5641 24.8926 49.897C24.8926 69.2263 40.5609 84.8947 59.8902 84.8947C79.2266 84.8947 94.8926 69.2251 94.8926 49.897C94.8926 30.5641 79.2266 14.8945 59.8902 14.8945ZM55.8493 39.3631L58.8488 45.9737L61.7236 39.3631H65.0354C62.974 43.6855 60.9114 48.2631 58.8488 52.2683C56.7245 48.2631 54.6001 43.6843 52.4758 39.3631H55.8493ZM48.0787 39.3631H51.0782V51.5689H48.0787V39.3631ZM36.4975 51.5689H33.498V38.6649C36.184 41.0161 38.8083 43.3684 41.4325 45.7207V39.3631H44.432V52.2683C41.6819 49.916 38.9971 47.4366 36.4975 45.2113V51.5689ZM52.819 66.2945H52.8178H50.7932V58.4146L47.3793 66.2945H45.8736L42.4692 58.4146V66.2945H40.5313V55.9388H43.3562L46.668 63.6429L49.9988 55.9388H52.819V66.2945ZM65.4855 57.7128H58.0402V60.0652H64.3206V61.838H58.0402V64.5312L65.4855 64.5217V66.2957H56.0797V55.9388H65.4855V57.7128ZM66.433 39.3631H74.5089V42.0325H69.4325V44.1308H74.5089V46.8013H69.4325V48.8984H74.5089V51.5689H66.433V39.3631ZM79.2539 66.2945H77.3872L70.1782 58.5998V66.2945H68.219V55.9388H70.2709L77.2946 63.3865V55.9388H79.2539V66.2945ZM84.5499 50.1072H79.6754L79.0509 51.5701H75.9255C77.9857 47.1196 80.0483 42.7331 82.1097 38.6649C84.1723 42.669 86.2967 47.1196 88.4234 51.5701H85.1745L84.5499 50.1072Z" fill="#14142B"/>
</svg>
