<svg width="120" height="100" viewBox="0 0 120 100" fill="none" xmlns="http://www.w3.org/2000/svg">
<path d="M74.1262 26.5165H74.4776L75.0036 27.3981H75.3487L74.7777 26.504C75.0737 26.4684 75.2975 26.3094 75.2975 25.9466C75.2975 25.546 75.0622 25.3672 74.5863 25.3672H73.8281V27.3971H74.1272V26.5165H74.1262ZM74.1262 25.6307H74.5434C74.7568 25.6307 74.9806 25.6757 74.9806 25.9288C74.9806 26.2394 74.7505 26.2572 74.4953 26.2572H74.1262V25.6307Z" fill="#14142B"/>
<path d="M74.4997 28.1441C75.4451 28.1441 76.2524 27.3984 76.2524 26.3809C76.2524 25.3686 75.4451 24.625 74.4997 24.625C73.5375 24.625 72.7344 25.3686 72.7344 26.3809C72.7344 27.3984 73.5375 28.1441 74.4997 28.1441ZM74.4997 24.9168C75.283 24.9168 75.9031 25.5484 75.9031 26.3809C75.9031 27.2259 75.283 27.8502 74.4997 27.8502C73.7007 27.8502 73.0816 27.2269 73.0816 26.3809C73.0826 25.5474 73.7007 24.9168 74.4997 24.9168Z" fill="#14142B"/>
<path d="M35.9784 36.2222C36.3977 36.5642 36.6038 37.1425 36.6038 37.679L36.6111 43.0711C36.6111 43.4225 36.4113 43.6484 36.0767 43.7895C35.4774 44.0426 34.6952 44.0186 34.0886 43.801C33.8146 43.7069 33.55 43.4444 33.55 43.0753L33.5636 38.8921H31.2618L31.2503 42.9226C31.2807 44.0479 31.8234 44.6419 32.5053 45.0717C33.9223 45.9669 37.591 45.7588 38.7696 45.1951C39.7735 44.7161 40.264 43.7759 40.264 42.954L40.2515 36.4743C40.2515 35.8112 39.9189 35.1241 39.5173 34.7497C39.168 34.4287 35.8487 31.2788 35.535 30.9839C35.1972 30.6701 34.896 30.2121 34.896 29.5511V26.9722C34.896 26.7421 35.0319 26.4085 35.4231 26.2287C35.9543 25.9808 36.9405 26.0216 37.4268 26.2287C37.7813 26.3793 37.9664 26.6282 37.9664 26.9848L37.9518 30.3909H40.264V24.6192H37.9486V25.0741C36.2722 24.4163 34.2497 24.5251 33.0386 25.0093C32.1968 25.3418 31.2305 26.1272 31.2305 27.3801V30.7046C31.2305 31.2934 31.4009 31.7964 31.9489 32.4061C32.545 33.066 35.8811 36.1406 35.9784 36.2222Z" fill="#14142B"/>
<path d="M43.7375 45.4018C45.9483 45.8912 48.4237 46 50.6355 45.4196C51.6792 45.1466 52.3841 44.4219 52.3841 43.3552V26.7533C52.3893 25.7891 51.7106 24.9441 50.6292 24.6868C48.9288 24.2831 46.0455 24.1378 43.7228 24.691C42.7868 24.9127 41.9648 25.6259 41.9648 26.7575V43.3552C41.9638 44.2399 42.6582 45.1613 43.7375 45.4018ZM45.6366 27.0367C45.6366 26.5755 45.9953 26.3475 46.3216 26.2691C46.8069 26.153 47.5264 26.1624 48.0367 26.2733C48.3776 26.3475 48.7154 26.5849 48.7154 27.0419L48.7133 43.0634C48.7133 43.5654 48.3348 43.7651 48.043 43.8415C47.5849 43.9565 46.7985 43.9544 46.3185 43.8373C45.8677 43.7264 45.6377 43.4315 45.6377 43.0644V27.0367H45.6366Z" fill="#14142B"/>
<path d="M54.1192 26.7242V43.3721C54.1192 43.6785 53.8536 43.9054 53.5524 43.9054V45.4888H62.5117V38.8072H60.9472C60.9388 40.4397 60.0332 43.9211 58.3808 43.9211C58.3191 43.9211 57.7868 43.9211 57.7868 43.9211V26.72C57.7868 26.4261 58.0503 26.1929 58.3651 26.1929V24.6211H53.543V26.1961C53.8358 26.1961 54.1192 26.3958 54.1192 26.7242Z" fill="#14142B"/>
<path d="M80.7318 43.9044C80.4202 43.9044 80.1566 43.6858 80.1566 43.3794V32.5691L84.3325 45.4877H87.3987L87.3998 26.721C87.3998 26.4565 87.6246 26.1961 87.9656 26.1961L87.9687 24.6211H84.5218V26.194C84.8324 26.194 85.1032 26.4178 85.1032 26.7221V35.9794L81.4325 24.6211H77.2891V26.1919C77.5756 26.1919 77.8601 26.4063 77.8601 26.721V43.3805C77.8601 43.6701 77.6091 43.9096 77.2891 43.9096V45.4888H80.7318V43.9044Z" fill="#14142B"/>
<path d="M63.2773 45.4877H65.7057C65.7057 45.4877 66.1135 43.5049 66.1752 43.2748C66.2265 43.1002 67.0265 39.8656 67.0265 39.8656H70.6491C70.6491 39.8656 71.3404 42.6202 71.4879 43.2665C71.5632 43.6022 72.0264 45.4877 72.0264 45.4877H76.1301V43.9013H75.8363C75.5121 43.9013 75.3029 43.6534 75.2799 43.5059L70.6491 24.6211H67.4082C67.4082 24.6211 67.4124 26.1971 67.4082 26.1919C67.791 26.1919 68.0116 26.5485 67.9719 26.721C67.9238 26.9448 63.2773 45.4877 63.2773 45.4877ZM68.8661 32.6277L70.2925 38.3962H67.3946L68.8661 32.6277Z" fill="#14142B"/>
<path d="M37.2208 57.668L37.2176 48.4442C37.2176 47.8972 36.7669 47.2812 35.9324 47.2812H31.2305V48.1587C31.4124 48.1587 31.5505 48.3082 31.5505 48.4504V57.6994C31.5505 57.8573 31.4124 57.9912 31.2305 57.9912V58.8655H35.9324C36.5797 58.8655 37.2208 58.4064 37.2208 57.668ZM35.1836 57.5572C35.1836 57.828 34.9368 57.9891 34.7119 57.9891H33.5814V48.1576H34.7046C34.9671 48.1576 35.1836 48.3438 35.1836 48.5937V57.5572Z" fill="#14142B"/>
<path d="M41.5229 57.9954H40.4531V53.2788H41.0199C41.5062 53.2966 41.8377 53.6229 41.8377 54.035C41.8377 54.0611 41.8377 54.4459 41.8377 54.4459H42.6879V51.1684H41.8377C41.8377 51.6819 41.8377 51.5596 41.8377 51.6035C41.8377 52.0093 41.4696 52.347 41.0199 52.347H40.452V48.1597H41.5062L42.393 50.3862H43.2411L42.6816 47.2812H38.0938V48.1555C38.2611 48.1555 38.4169 48.2768 38.4169 48.4463V57.6952C38.4169 57.8751 38.2433 57.9933 38.0948 57.9933V58.8665H43.2453V55.1079H42.4411L41.5229 57.9954Z" fill="#14142B"/>
<path d="M86.6717 47.5337C85.7368 47.1666 84.6157 47.2293 83.9433 47.4981C83.4779 47.6853 82.9414 48.1204 82.9414 48.8158V50.6616C82.9414 50.9879 83.0355 51.2671 83.3378 51.6049C83.6693 51.972 85.5193 53.6798 85.5747 53.7258C85.8048 53.9161 85.9219 54.2372 85.9219 54.5331L85.9251 57.5262C85.9251 57.7207 85.8121 57.8483 85.6333 57.9246C85.2955 58.0658 84.8636 58.0512 84.5268 57.933C84.3741 57.8776 84.2267 57.7322 84.2267 57.5262L84.233 55.2035H82.954L82.9487 57.4446C82.9665 58.07 83.2698 58.4005 83.6505 58.6379C84.4338 59.1346 86.4751 59.0227 87.1298 58.7079C87.6841 58.4412 87.9508 57.9194 87.9508 57.4645L87.9476 53.8649C87.9476 53.4978 87.7615 53.1161 87.5387 52.9111C87.3473 52.7302 85.5046 50.9827 85.3269 50.8206C85.1438 50.6438 84.9744 50.3876 84.9744 50.0237V48.591C84.9744 48.4602 85.0518 48.2762 85.2693 48.1768C85.5653 48.0398 86.1102 48.0639 86.38 48.1768C86.5745 48.2605 86.6791 48.4017 86.6791 48.5951L86.6707 50.4859H87.9497V47.2816H86.6717V47.5337Z" fill="#14142B"/>
<path d="M66.2856 47.2812H61.5879V48.1587C61.7207 48.1587 61.9016 48.2413 61.9016 48.4504V57.6942C61.9016 57.918 61.7008 57.9891 61.5879 57.9891V58.8655H66.2856C66.911 58.8655 67.5761 58.3948 67.5761 57.7067V54.0245C67.5761 53.6135 67.415 53.2799 66.8691 52.9693C67.3753 52.7549 67.5761 52.2352 67.5761 51.912V48.4693C67.5771 47.8774 67.0511 47.2812 66.2856 47.2812ZM63.9378 48.1576H65.0568C65.3297 48.1576 65.5379 48.3595 65.5379 48.5916L65.5347 51.913C65.5347 52.1578 65.3297 52.345 65.061 52.345H63.9378V48.1576ZM65.5347 57.5519C65.5347 57.8238 65.3015 57.9901 65.0568 57.9901H63.9451V53.5455H63.9566H65.0568C65.3015 53.5455 65.541 53.7118 65.541 54.0287L65.5347 57.5519Z" fill="#14142B"/>
<path d="M74.4471 57.6942V54.0245C74.4471 53.6135 74.287 53.2799 73.7411 52.9693C74.2452 52.7549 74.4471 52.2352 74.4471 51.912V48.4693C74.4471 47.8774 73.9252 47.2812 73.1565 47.2812H68.4609V48.1587C68.5927 48.1587 68.7715 48.2413 68.7715 48.4504V57.6942C68.7715 57.918 68.5749 57.9891 68.4609 57.9891V58.8655H71.135V57.9849C70.9447 57.9849 70.8129 57.8573 70.8129 57.6942V53.5445H70.8255H71.9267C72.1756 53.5445 72.4088 53.7108 72.4088 54.0276V57.6942C72.4088 58.4356 73.0499 58.8655 73.7077 58.8655C74.1197 58.8655 74.7639 58.8655 74.7639 58.8655V57.9891C74.6165 57.9891 74.4471 57.8782 74.4471 57.6942ZM72.4078 51.9141C72.4078 52.1588 72.2007 52.346 71.934 52.346H70.8098V48.1576H71.9267C72.1996 48.1576 72.4067 48.3595 72.4067 48.5916V51.9141H72.4078Z" fill="#14142B"/>
<path d="M52.0156 47.7404C52.0156 47.7404 51.842 47.3932 51.3264 47.3325C50.7659 47.2656 49.8675 47.3022 49.6061 47.3367C49.1334 47.3994 48.4902 47.7696 48.4902 48.5038V57.6701C48.4902 58.1271 48.7757 58.6312 49.5067 58.832C50.0955 58.9962 51.5481 59.0223 52.275 58.8383C52.984 58.6626 53.2915 58.2275 53.2915 57.5425V55.3892H52.0146V57.553C52.0146 57.7946 51.8253 57.9127 51.6559 57.9786C51.4676 58.0497 51.0671 58.0403 50.8694 57.9734C50.6425 57.8876 50.5285 57.7465 50.5243 57.5519V48.6303C50.5243 48.4609 50.6529 48.2758 50.859 48.2141C51.1068 48.1409 51.4875 48.1378 51.7019 48.2214C51.8817 48.2936 52.0198 48.4243 52.0198 48.6167L52.0166 50.7846H53.2904V47.2812H52.0135V47.7404H52.0156Z" fill="#14142B"/>
<path d="M60.5377 57.7684L57.9672 47.2812H56.1695C56.1695 47.2812 56.1695 48.1315 56.1695 48.1566C56.3818 48.1566 56.5031 48.3521 56.479 48.4452C56.455 48.5718 53.875 58.8655 53.875 58.8655H55.223C55.223 58.8655 55.4521 57.7674 55.4824 57.6387C55.5117 57.5425 55.9561 55.7438 55.9561 55.7438H57.9672C57.9672 55.7438 58.3489 57.2748 58.4336 57.6325C58.4754 57.8218 58.7327 58.8655 58.7327 58.8655H61.0094V57.9849H60.8494C60.6695 57.9849 60.5524 57.8489 60.5377 57.7684ZM56.1601 54.9302L56.9789 51.729L57.7685 54.9302H56.1601Z" fill="#14142B"/>
<path d="M81.9549 57.7684L79.3854 47.2812H77.5856C77.5856 47.2812 77.5856 48.1378 77.5856 48.1566C77.8303 48.1723 77.9161 48.3762 77.8805 48.5038C77.8523 48.6324 75.2891 58.8655 75.2891 58.8655H76.6371C76.6371 58.8655 76.864 57.7674 76.8985 57.6387C76.9299 57.5425 77.3754 55.7438 77.3754 55.7438H79.3833C79.3833 55.7438 79.7619 57.2748 79.8498 57.6325C79.8905 57.8218 80.1468 58.8655 80.1468 58.8655H82.4224V57.9849H82.2614C82.0836 57.9849 81.9654 57.8489 81.9549 57.7684ZM77.5773 54.9302L78.393 51.729L79.1867 54.9302H77.5773Z" fill="#14142B"/>
<path d="M19.6016 16.5859V76.244H46.8549C47.1331 78.3962 48.1914 80.2776 49.918 81.6204C52.1916 83.392 55.5444 84.2913 59.8813 84.2913C64.2172 84.2913 67.57 83.392 69.8435 81.6204C71.5649 80.2745 72.6243 78.3941 72.9056 76.244H99.6016V16.5859H19.6016ZM68.6409 79.9147C68.576 79.9273 68.5185 79.9409 68.4641 79.9576C68.141 80.0559 67.4633 80.0841 66.9979 79.9576C66.6277 79.8509 65.7315 79.8237 65.3268 79.9576C64.9806 80.0705 64.2998 80.0883 63.8564 79.9576C63.4412 79.8133 62.5721 79.8394 62.1852 79.9576C61.8579 80.0559 61.1802 80.0841 60.7159 79.9576C60.3477 79.8509 59.4504 79.8237 59.0436 79.9576C58.6985 80.0705 58.0167 80.0883 57.5722 79.9576C57.1309 79.8279 56.4061 79.8018 55.8989 79.9576H55.901C55.5716 80.0559 54.8992 80.0841 54.439 79.9576C54.0667 79.8509 53.1715 79.8237 52.7657 79.9576C52.4185 80.0705 51.7388 80.0883 51.2943 79.9576C51.242 79.9419 51.1803 79.9346 51.1238 79.9199C50.8676 79.7108 50.6355 79.487 50.4232 79.2486C50.7066 79.2454 50.991 79.2705 51.1981 79.3364C51.6352 79.4755 52.4604 79.4713 52.8735 79.3364C53.274 79.2099 53.9705 79.214 54.3376 79.3364C54.7381 79.4713 55.5852 79.4755 56.0087 79.3364H56.0077C56.3905 79.2235 57.0786 79.214 57.477 79.3364C57.9163 79.4755 58.7393 79.4713 59.1524 79.3364C59.5529 79.2099 60.2515 79.214 60.6175 79.3364C61.017 79.4713 61.8641 79.4755 62.2887 79.3364C62.6631 79.214 63.368 79.214 63.7591 79.3333C64.1983 79.4713 65.0193 79.4713 65.4355 79.3364C65.834 79.2099 66.5326 79.214 66.8975 79.3364C67.2991 79.4713 68.1452 79.4755 68.5656 79.3364C68.7653 79.2737 69.0498 79.2433 69.3353 79.2454C69.123 79.4828 68.896 79.7056 68.6409 79.9147ZM56.0067 80.5391C56.3894 80.424 57.0775 80.4177 57.476 80.5391C57.9152 80.6792 58.7383 80.6729 59.1514 80.5391C59.5519 80.4125 60.2505 80.4177 60.6165 80.5391C61.016 80.6729 61.8631 80.6792 62.2877 80.5391C62.6621 80.4188 63.3669 80.4177 63.7581 80.5349C64.1973 80.6729 65.0183 80.6729 65.4345 80.5391C65.8329 80.4125 66.5315 80.4177 66.8965 80.5391C67.0701 80.5976 67.3284 80.63 67.5972 80.6395C67.3064 80.8068 66.9958 80.9605 66.6706 81.1048C66.2408 81.0546 65.6395 81.0567 65.3268 81.1603C64.9806 81.2732 64.2998 81.2899 63.8564 81.1603C63.4412 81.0149 62.5721 81.04 62.1852 81.1603C61.8579 81.2575 61.1802 81.2899 60.7159 81.1603C60.3477 81.0557 59.4504 81.0285 59.0436 81.1603C58.6985 81.2732 58.0167 81.2899 57.5722 81.1603C57.1309 81.0306 56.4061 81.0034 55.8989 81.1603L55.901 81.1634C55.5716 81.2575 54.8992 81.2899 54.439 81.1603C54.1451 81.0776 53.5281 81.0442 53.0795 81.0985C52.7574 80.9584 52.4478 80.8068 52.1613 80.6395C52.4332 80.6321 52.6936 80.5997 52.8735 80.5391C53.274 80.4125 53.9705 80.4177 54.3376 80.5391C54.7381 80.6729 55.5852 80.6792 56.0087 80.5391H56.0067ZM56.0087 81.7459L56.0077 81.7438C56.3905 81.6298 57.0786 81.6204 57.477 81.7459C57.9163 81.8818 58.7393 81.8808 59.1524 81.7459C59.5529 81.6173 60.2515 81.6204 60.6175 81.7459C61.017 81.8808 61.8641 81.8818 62.2887 81.7459C62.6631 81.6204 63.368 81.6204 63.7591 81.7417C63.9128 81.7888 64.1157 81.8212 64.3301 81.8348C63.0239 82.1151 61.5462 82.2657 59.8813 82.2657C58.2196 82.2657 56.745 82.1151 55.4409 81.8358C55.6563 81.8233 55.8602 81.793 56.0087 81.7459ZM64.511 77.3118C64.4786 77.2731 64.4221 77.2072 64.3563 77.1319C64.419 76.8757 64.3563 76.5588 64.1764 76.3036C64.1461 76.2607 64.5257 76.1007 64.4274 76.0359C64.3312 75.9658 63.9599 76.0401 63.8595 75.9899C63.8166 75.969 63.7518 75.9376 63.7215 75.9261C63.1442 75.7044 62.9674 75.079 62.9444 74.8081C62.9329 74.6136 62.979 74.1336 62.9946 73.9893C63.0469 74.0531 63.0992 74.0071 63.1651 74.0918C63.2122 73.9004 63.1222 73.8063 63.0114 73.777C63.3523 73.777 63.5071 73.8188 63.7894 74.0907C63.6556 73.7634 63.4694 73.6191 63.0982 73.5134C63.3387 73.4444 63.6524 73.3869 64.0425 73.5563C63.7392 73.2248 63.3952 73.2081 63.0281 73.2698C62.8451 73.1056 62.7771 73.0972 62.6966 73.0606C62.5198 72.9874 62.1768 72.5586 61.9855 72.7082C62.1465 72.7866 62.067 72.9979 61.8966 72.9299C61.8892 72.9885 61.8976 73.0522 61.9122 73.0972C61.9248 73.2342 61.816 73.3273 61.6937 73.388C61.8704 73.3681 62.0064 73.4183 62.0534 73.5689C62.1015 73.7111 62.0838 73.8868 61.9353 74.0541C61.8788 74.1263 61.7983 74.2947 61.7501 74.4348C61.4793 74.5394 61.2639 74.5938 61.1038 74.5404C60.9857 74.5049 60.7838 74.3877 60.6092 74.2758C60.6092 73.389 60.7295 72.4907 61.1289 72.1246C61.2095 72.0525 61.3475 71.9657 61.5232 71.8737C61.6393 71.928 61.7512 72.0002 61.8464 72.0588C61.7752 72.1497 61.7878 72.2679 61.884 72.3443C62.0022 72.4394 62.1873 72.4394 62.3002 72.3484C62.4132 72.2575 62.4174 72.1079 62.3013 72.0169C62.2061 71.9374 62.0534 71.9249 61.9447 71.9803C61.8704 71.9113 61.7815 71.8381 61.7177 71.7743C61.8568 71.7053 62.0116 71.6279 62.1706 71.5557C62.1685 71.563 62.1664 71.5704 62.1664 71.5787C62.1538 71.721 62.4205 71.8099 62.8493 71.9751C63.1745 72.1006 63.8961 72.2156 64.1889 71.9176C63.7549 71.7262 63.5238 71.5442 63.1892 71.4627C62.9099 71.3968 62.6506 71.3842 62.4665 71.4125C62.7897 71.2577 63.1212 71.0935 63.3941 70.9324C63.5447 70.9596 63.6985 71.0119 63.826 71.0537C63.7884 71.1531 63.8428 71.2671 63.9599 71.3204C64.1011 71.3863 64.2789 71.3487 64.3636 71.2347C64.4399 71.1207 64.3918 70.9785 64.2527 70.9147C64.1356 70.8571 63.9913 70.8781 63.8961 70.9544C63.7978 70.9032 63.688 70.8498 63.6043 70.8007C63.6514 70.7693 63.6995 70.7369 63.7382 70.7034C63.9704 70.6794 64.3259 70.5444 64.6784 70.3071C65.0057 70.0833 65.1741 69.8103 65.5631 69.4401C65.1009 69.2906 64.3636 69.7151 64.0655 69.9776C63.6702 70.3196 63.4192 70.5235 63.4977 70.6522C63.5019 70.6543 63.5039 70.6563 63.5071 70.6584C63.4506 70.694 63.392 70.7264 63.3303 70.762C63.3167 70.6731 63.3136 70.5476 63.3032 70.4399C63.4318 70.4158 63.5249 70.3248 63.5249 70.2119C63.5249 70.0833 63.3952 69.9776 63.2362 69.9776C63.0689 69.9776 62.9371 70.0822 62.9371 70.2119C62.9371 70.3217 63.0354 70.4158 63.1588 70.4399C63.1379 70.5831 63.1118 70.762 63.0302 70.9032C62.7687 71.0077 62.4717 71.1081 62.1622 71.1939C62.1371 71.1636 62.1402 71.1207 62.1977 71.0998C62.317 71.0558 62.5931 70.9439 62.7395 70.7243C62.8702 70.5162 62.7342 69.9923 63.0741 69.8647C62.4968 69.8019 62.0325 70.5183 61.9405 70.7452C61.8767 70.8969 62.0043 71.0381 61.9332 71.1259C61.8976 71.1772 61.8223 71.2451 61.7512 71.3006C61.3297 71.4062 60.8905 71.5139 60.56 71.6279C60.5015 71.2064 60.6322 70.8404 60.8727 70.5256C60.9721 70.6145 61.2523 70.6386 61.6184 70.5664C61.8976 70.5089 62.1235 70.2642 62.4142 69.9253C62.0576 69.8427 61.6644 69.9504 61.4301 70.0948C61.3109 70.1659 61.1896 70.2255 61.0882 70.2746C61.4259 69.9306 61.8746 69.6419 62.2887 69.3857C62.4404 69.3732 62.6056 69.3951 62.7395 69.4171C62.7363 69.5018 62.8022 69.5865 62.911 69.6095C63.0365 69.643 63.1735 69.5865 63.2111 69.484C63.253 69.3805 63.1829 69.2707 63.0501 69.2393C62.9423 69.2132 62.8315 69.2519 62.774 69.3282C62.6861 69.3 62.591 69.2738 62.5125 69.2508C62.6108 69.1881 62.7029 69.1326 62.7886 69.0751C62.9528 69.1086 63.1975 68.9747 63.5876 68.7854C63.9254 68.6212 64.4723 68.1527 64.2977 67.7585C63.825 67.9718 63.4788 68.0304 63.1923 68.2322C62.7897 68.5083 62.6098 68.8409 62.6746 68.9946C62.4602 69.1096 62.1842 69.2508 61.8871 69.4077C61.8809 69.4035 61.8809 69.3962 61.8809 69.3962C61.8746 69.3512 61.9091 69.3062 61.975 69.2592C62.0461 69.2132 62.3431 69.0584 62.5136 68.8816C62.7112 68.6861 62.8806 68.1977 62.5993 67.9457C62.5931 68.1506 62.1151 68.2542 61.9405 68.547C61.8359 68.7269 61.7648 68.8607 61.7721 69.0458C61.7763 69.1745 61.8202 69.3104 61.7418 69.4432C61.7407 69.4558 61.725 69.4767 61.7125 69.4966C61.6414 69.5363 61.5724 69.574 61.5023 69.6095C61.4929 69.5269 61.4866 69.4066 61.4772 69.3C61.6037 69.2738 61.7031 69.1849 61.7031 69.0741C61.7031 68.9434 61.5724 68.8388 61.4092 68.8388C61.2492 68.8388 61.1174 68.9434 61.1174 69.0741C61.1174 69.1839 61.2105 69.2728 61.3381 69.3C61.3172 69.438 61.291 69.6043 61.2178 69.7402C61.1122 69.6942 61.0756 69.552 61.0976 69.5133C61.1802 69.3627 61.0223 68.9674 60.8759 68.7708C60.6583 68.4811 60.4596 68.3305 60.2934 68.1559C61.1394 68.1172 61.7878 67.9593 61.8098 67.7721C61.8359 67.5535 60.9804 67.3788 59.9054 67.3788C58.8282 67.3788 57.9717 67.5535 57.9916 67.7721C58.0093 67.9551 58.617 68.1078 59.4212 68.1506C59.257 68.3284 59.0572 68.478 58.8366 68.7718C58.6912 68.9684 58.5302 69.3638 58.6149 69.5144C58.6389 69.552 58.6002 69.6953 58.4956 69.7413C58.4235 69.6043 58.3952 69.4391 58.3754 69.301C58.5019 69.2749 58.5939 69.186 58.5939 69.0751C58.5939 68.9444 58.4643 68.8398 58.3043 68.8398C58.1401 68.8398 58.0093 68.9444 58.0093 69.0751C58.0093 69.1849 58.1045 69.2738 58.2321 69.301C58.2258 69.4077 58.2195 69.5269 58.207 69.6106C58.139 69.574 58.069 69.5363 57.9978 69.4976C57.9884 69.4777 57.9727 69.4558 57.9665 69.4443C57.8922 69.3125 57.9351 69.1766 57.9424 69.0469C57.9497 68.8618 57.8744 68.7279 57.7709 68.548C57.5973 68.2542 57.1141 68.1517 57.11 67.9467C56.8307 68.1987 57.0075 68.6871 57.1957 68.8827C57.3714 69.0594 57.6716 69.2142 57.7374 69.2602C57.8054 69.3062 57.8378 69.3512 57.8326 69.393C57.8326 69.393 57.8284 69.4035 57.8253 69.4077C57.5325 69.2519 57.2543 69.1096 57.0357 68.9946C57.1026 68.8409 56.9238 68.5083 56.5212 68.2322C56.2305 68.0304 55.8874 67.9718 55.4126 67.7585C55.2349 68.1527 55.7891 68.6212 56.1227 68.7854C56.5065 68.9747 56.7586 69.1096 56.9207 69.0751C57.0064 69.1326 57.1016 69.1881 57.1968 69.2508C57.1194 69.2738 57.02 69.301 56.9343 69.3282C56.8788 69.2519 56.7649 69.2132 56.655 69.2393C56.5296 69.2707 56.4574 69.3805 56.495 69.484C56.5358 69.5855 56.6728 69.643 56.7994 69.6095C56.9081 69.5865 56.9761 69.5018 56.9677 69.4171C57.1047 69.3951 57.2731 69.3721 57.4216 69.3857C57.8357 69.6419 58.2833 69.9306 58.619 70.2746C58.5186 70.2255 58.3973 70.1659 58.2792 70.0948C58.0459 69.9504 57.6496 69.8438 57.293 69.9253C57.5868 70.2631 57.8096 70.5089 58.0909 70.5664C58.458 70.6386 58.7372 70.6145 58.8334 70.5256C59.075 70.8404 59.211 71.2054 59.1514 71.6279C58.8219 71.5129 58.3827 71.4062 57.9581 71.3006C57.8859 71.2451 57.8117 71.1772 57.7772 71.1259C57.7103 71.037 57.8337 70.8969 57.7709 70.7452C57.6778 70.5183 57.2114 69.8019 56.6362 69.8647C56.9761 69.9923 56.837 70.5152 56.973 70.7243C57.1162 70.945 57.3923 71.0558 57.5116 71.0998C57.5712 71.1196 57.5722 71.1636 57.5461 71.1939C57.2386 71.1081 56.9416 71.0077 56.6833 70.9032C56.5996 70.762 56.5714 70.5831 56.5515 70.4399C56.6781 70.4158 56.7732 70.3217 56.7732 70.2119C56.7732 70.0833 56.6394 69.9776 56.4783 69.9776C56.3173 69.9776 56.1834 70.0822 56.1834 70.2119C56.1834 70.3248 56.2796 70.4158 56.4072 70.4399C56.3999 70.5476 56.3946 70.6741 56.38 70.762C56.3183 70.7264 56.2597 70.694 56.2054 70.6584C56.2054 70.6584 56.2064 70.6543 56.2116 70.6522C56.2932 70.5235 56.037 70.3196 55.6469 69.9776C55.3468 69.7162 54.6105 69.2906 54.1483 69.4401C54.5384 69.8103 54.7036 70.0822 55.0341 70.3071C55.3834 70.5444 55.74 70.6794 55.9711 70.7034C56.0119 70.7369 56.0589 70.7693 56.1081 70.8007C56.0202 70.8488 55.9115 70.9032 55.8132 70.9544C55.7232 70.8791 55.5727 70.8582 55.4576 70.9147C55.3154 70.9785 55.2683 71.1207 55.3478 71.2347C55.4304 71.3476 55.6103 71.3863 55.7515 71.3204C55.8686 71.2671 55.9209 71.1531 55.8864 71.0537C56.0129 71.0119 56.1635 70.9596 56.3183 70.9324C56.5871 71.0924 56.9207 71.2566 57.2459 71.4125C57.0608 71.3832 56.8015 71.3968 56.5222 71.4627C56.1844 71.5432 55.9565 71.7262 55.5183 71.9176C55.8132 72.2146 56.5348 72.1006 56.8611 71.9751C57.2888 71.8099 57.5586 71.721 57.545 71.5787C57.5419 71.5714 57.5398 71.5641 57.5377 71.5557C57.7008 71.6289 57.8525 71.7063 57.9926 71.7743C57.9257 71.8381 57.842 71.9113 57.7678 71.9803C57.6538 71.9249 57.5063 71.9374 57.4101 72.0169C57.294 72.1079 57.294 72.2575 57.4112 72.3484C57.5283 72.4394 57.7123 72.4394 57.8284 72.3443C57.9225 72.2679 57.9382 72.1497 57.8692 72.0588C57.9623 72.0002 58.0721 71.928 58.1892 71.8737C58.3639 71.9657 58.503 72.0514 58.5803 72.1246C58.9798 72.4907 59.1001 73.389 59.1032 74.2758C58.9276 74.3877 58.7215 74.5017 58.6065 74.5404C58.4496 74.5938 58.2321 74.5394 57.9623 74.4348C57.9142 74.2947 57.8316 74.1263 57.7709 74.0541C57.6287 73.8868 57.6109 73.7111 57.6538 73.5689C57.7082 73.4183 57.8399 73.3681 58.0146 73.388C57.8954 73.3273 57.7855 73.2342 57.8002 73.0972C57.8086 73.0522 57.8201 72.9874 57.8138 72.9299C57.6433 72.9989 57.5607 72.7877 57.727 72.7082C57.5346 72.5586 57.1915 72.9874 57.0148 73.0606C56.9395 73.0972 56.8642 73.1056 56.6843 73.2698C56.3162 73.2091 55.969 73.2259 55.6668 73.5563C56.0569 73.3869 56.3706 73.4444 56.6132 73.5134C56.242 73.6191 56.0506 73.7634 55.9209 74.0907C56.2054 73.8188 56.3622 73.777 56.6979 73.777C56.5881 73.8063 56.5024 73.9004 56.5431 74.0918C56.6111 74.0071 56.6634 74.0541 56.7147 73.9893C56.7303 74.1336 56.7774 74.6126 56.7628 74.8081C56.7398 75.079 56.5672 75.7044 55.9878 75.9261C55.9596 75.9376 55.8916 75.9679 55.8498 75.9899C55.7504 76.0411 55.3792 75.9658 55.2798 76.0359C55.1909 76.1018 55.5601 76.2607 55.5308 76.3036C55.3541 76.5588 55.2924 76.8746 55.3551 77.1319C55.2872 77.2072 55.2296 77.2741 55.1983 77.3118C55.1209 77.3975 54.6461 77.6265 54.6461 77.8378V78.5646L54.828 78.7236V78.8208C54.828 78.8208 54.828 78.8208 54.828 78.8229C54.6879 78.8083 54.5541 78.7863 54.4338 78.7528C54.0615 78.6483 53.1663 78.62 52.7605 78.7528C52.4133 78.8658 51.7335 78.8836 51.2891 78.7528C50.9408 78.6493 50.4253 78.619 49.9724 78.6807C49.2623 77.66 48.889 76.4437 48.889 75.079C48.889 74.9462 48.8953 74.8123 48.9015 74.6785C48.9099 74.5509 48.9193 74.4233 48.934 74.2957C49.004 73.5919 49.1609 72.8692 49.4035 72.1518C49.4087 72.133 49.4182 72.1205 49.4234 72.0995C49.4684 71.9678 49.5165 71.8308 49.5688 71.6969C49.5897 71.6436 49.6106 71.5913 49.6315 71.538C49.6702 71.4386 49.712 71.3403 49.7539 71.2409C49.7769 71.1824 49.8041 71.1259 49.8312 71.0673C49.8731 70.969 49.918 70.8718 49.9651 70.7756C49.9933 70.7222 50.0164 70.6679 50.0435 70.6145C50.099 70.4984 50.1607 70.3803 50.2234 70.2673C50.2391 70.2349 50.2558 70.2004 50.2736 70.1711C50.3521 70.0236 50.4347 69.8793 50.5204 69.7381C50.5466 69.6911 50.5738 69.6493 50.602 69.6043C50.6647 69.5039 50.7254 69.4045 50.7902 69.3021C50.8258 69.2498 50.8572 69.1975 50.8917 69.1441C50.9544 69.0521 51.0161 68.959 51.081 68.868C51.1176 68.8168 51.1521 68.7666 51.1897 68.7154C51.2629 68.616 51.3351 68.5156 51.4083 68.4173C51.4407 68.3776 51.469 68.3399 51.5014 68.2991C51.6028 68.1653 51.7105 68.0325 51.8214 67.8986C51.8465 67.8704 51.8705 67.8421 51.8967 67.8118C51.9824 67.7104 52.0724 67.6068 52.1602 67.5064C52.201 67.4625 52.2439 67.4186 52.2836 67.3726C52.3631 67.2889 52.4415 67.2063 52.5179 67.1216C52.5639 67.0756 52.6068 67.0316 52.6517 66.9877C52.7354 66.9041 52.8212 66.8194 52.9059 66.7367C52.9456 66.7001 52.9854 66.6614 53.0282 66.6227C53.1527 66.5067 53.2803 66.3885 53.411 66.2766C53.411 66.2766 53.4194 66.2714 53.4256 66.2682C53.549 66.1584 53.6766 66.0517 53.8074 65.9493C53.8534 65.9137 53.8962 65.8823 53.9402 65.8457C54.0353 65.7746 54.1274 65.7024 54.2215 65.6334C54.2738 65.5968 54.3229 65.5623 54.3721 65.5257C54.4683 65.4609 54.5603 65.3939 54.6586 65.3291C54.7057 65.2988 54.7559 65.2653 54.804 65.235C54.918 65.1607 55.0362 65.0875 55.1564 65.0164C55.1836 65.0007 55.2087 64.9829 55.237 64.9641C55.3823 64.8805 55.5308 64.7989 55.6793 64.7215C55.7212 64.7006 55.7651 64.6797 55.8038 64.6577C55.9157 64.6023 56.0244 64.5469 56.1342 64.4967C56.1886 64.4716 56.242 64.4465 56.2953 64.4224C56.3999 64.3785 56.5024 64.3346 56.6069 64.2906C56.6592 64.2708 56.7136 64.2488 56.7701 64.23C56.8851 64.184 56.997 64.1421 57.1121 64.1034C57.156 64.0857 57.1989 64.07 57.2449 64.0585C57.4007 64.0062 57.5586 63.9591 57.7197 63.9162C57.751 63.9068 57.7793 63.9027 57.8106 63.8932C57.9424 63.8598 58.0721 63.8305 58.2039 63.8022C58.2572 63.7928 58.3137 63.7824 58.3691 63.7698C58.4799 63.751 58.5898 63.7322 58.7006 63.7175C58.7581 63.7081 58.8188 63.6977 58.8742 63.6914C58.9882 63.6768 59.1053 63.6652 59.2193 63.6579C59.2727 63.6506 59.3239 63.6464 59.3752 63.6433C59.5404 63.6339 59.7088 63.6255 59.8761 63.6255C60.0413 63.6255 60.2076 63.6328 60.3728 63.6433C60.4262 63.6475 60.4774 63.6506 60.5318 63.6579C60.6447 63.6642 60.7587 63.6768 60.8727 63.6914C60.9334 63.6977 60.9919 63.7081 61.0505 63.7175C61.1603 63.7322 61.2691 63.751 61.381 63.7698C61.4354 63.7824 61.4887 63.7928 61.5452 63.8022C61.678 63.8305 61.8066 63.8598 61.9363 63.8932C61.9677 63.9027 62.0022 63.9058 62.0325 63.9162C62.1894 63.9591 62.3504 64.0051 62.5083 64.0585C62.5533 64.071 62.5941 64.0867 62.637 64.1034C62.752 64.1421 62.866 64.1829 62.979 64.23C63.0344 64.2488 63.0919 64.2708 63.1452 64.2927C63.2488 64.3356 63.3523 64.3795 63.4548 64.4234C63.5092 64.4475 63.5625 64.4726 63.6158 64.4977C63.7257 64.5479 63.8365 64.6033 63.9453 64.6588C63.9881 64.6807 64.0279 64.7016 64.0708 64.7225C64.2203 64.7999 64.3667 64.8815 64.5131 64.9652C64.5414 64.985 64.5717 65.0028 64.5989 65.0196C64.7171 65.0896 64.8342 65.1628 64.9482 65.2371C64.9963 65.2674 65.0444 65.3009 65.0946 65.3322C65.1887 65.396 65.2818 65.463 65.378 65.5278C65.4292 65.5644 65.4774 65.5989 65.5286 65.6355C65.6217 65.7045 65.7179 65.7757 65.8089 65.8478C65.8538 65.8844 65.8999 65.9158 65.9417 65.9514C66.0703 66.0528 66.1979 66.1595 66.3224 66.264C66.3265 66.2703 66.3328 66.2735 66.3391 66.2787C66.4688 66.3916 66.5984 66.5077 66.7208 66.6248C66.7647 66.6635 66.8055 66.7054 66.8463 66.7441C66.9289 66.8225 67.0136 66.9051 67.0973 66.9898C67.1412 67.0348 67.1862 67.0798 67.2291 67.1237C67.3096 67.2094 67.388 67.29 67.4654 67.3747C67.5072 67.4196 67.548 67.4656 67.5888 67.5085C67.6808 67.6079 67.7666 67.7093 67.8513 67.8108C67.8774 67.84 67.9025 67.8704 67.9276 67.9007C68.0385 68.0335 68.1441 68.1674 68.2487 68.3012C68.2811 68.341 68.3094 68.3818 68.3397 68.4226C68.4129 68.5198 68.484 68.6171 68.5562 68.7175C68.5928 68.7697 68.6315 68.8189 68.6681 68.8733C68.7266 68.9622 68.7915 69.0552 68.8542 69.1462C68.8887 69.2017 68.9222 69.256 68.9567 69.3052C69.0205 69.4066 69.0853 69.507 69.1439 69.6074C69.1721 69.6534 69.2014 69.6953 69.2265 69.7413C69.3112 69.8835 69.3938 70.0278 69.4723 70.1742C69.4922 70.2035 69.5068 70.238 69.5246 70.2694C69.5842 70.3844 69.6459 70.5016 69.7024 70.6208C69.7316 70.6731 69.7536 70.7264 69.7797 70.7798C69.8289 70.876 69.8749 70.9743 69.9188 71.0747C69.946 71.1301 69.969 71.1866 69.9941 71.242C70.0381 71.3434 70.0788 71.4449 70.1165 71.5474C70.1395 71.5997 70.1594 71.6478 70.1803 71.699C70.2357 71.8391 70.289 71.9824 70.334 72.1236C70.3382 72.1351 70.3434 72.1424 70.3445 72.1529C70.585 72.8713 70.7481 73.595 70.814 74.2957C70.8276 74.4243 70.8381 74.554 70.8485 74.6816C70.8559 74.8144 70.86 74.9483 70.86 75.0821C70.86 76.4469 70.4815 77.6631 69.7766 78.6828C69.3353 78.6284 68.757 78.665 68.46 78.757C68.1368 78.8543 67.4591 78.8857 66.9938 78.757C66.6235 78.6524 65.7273 78.6242 65.3226 78.757C65.2065 78.7957 65.0475 78.8187 64.875 78.8323V78.7277L65.0643 78.5688V77.842C65.0684 77.6265 64.5884 77.3975 64.511 77.3118ZM62.1852 78.7528C62.1549 78.7591 62.1245 78.7706 62.0921 78.7748V78.7298L62.2678 78.5709C62.4121 78.4809 62.9591 78.1515 63.0752 78.095C63.1442 78.0616 63.2833 77.8493 63.3795 77.5722C63.9275 77.8503 64.4033 77.8723 64.5424 77.9591C64.8886 78.1672 64.5571 78.6985 64.5571 78.6985L64.4504 78.779L64.4232 78.8344C64.2245 78.8229 64.0216 78.803 63.8574 78.7539V78.7528C63.4412 78.6064 62.5721 78.6347 62.1852 78.7528ZM61.1812 76.0924C61.2503 76.0777 61.4322 75.9805 61.6372 75.8738C61.8213 76.4134 62.1726 76.8338 62.5554 77.1225C62.4728 77.4833 62.5627 77.7562 62.4613 77.8346C62.3431 77.9235 61.7596 78.7037 61.7596 78.7037L61.725 78.7236C61.3601 78.2216 60.8727 76.9499 60.7661 76.3256C60.7546 76.2628 60.741 76.1781 60.7295 76.0798C60.9407 76.0955 61.13 76.1028 61.1812 76.0924ZM60.6908 75.7567C60.6531 75.4461 60.6228 75.0581 60.6102 74.6534C60.81 74.7914 61.0118 74.9221 61.062 74.9399C61.1279 74.964 61.3308 74.9713 61.5619 74.9828C61.541 75.0874 61.5284 75.1846 61.5243 75.2704C61.3371 75.5182 61.1771 75.696 60.9972 75.7357C60.9261 75.7483 60.8131 75.7567 60.6908 75.7567ZM59.3867 69.4809C59.2476 69.4171 59.0677 69.4589 58.9893 69.5719C58.9213 69.6681 58.9485 69.7863 59.0468 69.8584C59.0008 69.917 58.9495 69.9839 58.9035 70.0414C58.824 69.9912 58.7435 69.9348 58.6619 69.8825C58.5887 69.7392 58.7174 69.5635 58.8585 69.5206C59.0196 69.4694 59.2863 69.2498 59.4107 69.0866C59.4954 68.9768 59.7872 68.5031 59.7182 68.1621H59.9974C59.9294 68.5031 60.2191 68.9768 60.3007 69.0866C60.4304 69.2498 60.696 69.4694 60.8549 69.5206C60.9972 69.5635 61.1269 69.7381 61.0526 69.8825C60.9721 69.9348 60.8905 69.9912 60.8121 70.0414C60.7629 69.9829 60.7138 69.9159 60.6688 69.8584C60.7629 69.7863 60.7891 69.6681 60.7232 69.5719C60.6479 69.4589 60.468 69.4171 60.3247 69.4809C60.1846 69.5436 60.1334 69.6859 60.2139 69.8019C60.2798 69.895 60.4178 69.94 60.5412 69.9138C60.5809 69.985 60.6217 70.0697 60.6521 70.1565C60.3383 70.3918 60.0152 70.6344 59.8594 70.9042C59.6952 70.6344 59.3762 70.3928 59.0583 70.1565C59.0917 70.0686 59.1325 69.9839 59.1712 69.9138C59.2978 69.94 59.4369 69.895 59.5027 69.8019C59.5812 69.6869 59.5278 69.5436 59.3867 69.4809ZM59.5393 68.0157C59.2789 68.0053 59.0353 67.9781 58.8303 67.9383C58.459 67.8662 58.3879 67.7867 58.3796 67.7731C58.3879 67.7585 58.4465 67.679 58.8157 67.6068C59.1085 67.5504 59.4975 67.5211 59.9033 67.5211C60.3122 67.5211 60.696 67.5504 60.9919 67.6068C61.3601 67.679 61.4165 67.7585 61.4207 67.7731C61.4113 67.7867 61.3423 67.8662 60.9679 67.9383C60.7462 67.9812 60.4701 68.0105 60.1794 68.021C60.1574 67.9959 60.1407 67.9697 60.1208 67.9425C60.0936 67.9645 60.0727 67.9938 60.0528 68.0231C60.0005 68.0231 59.9503 68.0272 59.8991 68.0272C59.8186 68.0272 59.738 68.0231 59.6575 68.021C59.6408 67.9938 59.6188 67.9645 59.5895 67.9425C59.5759 67.9666 59.5571 67.9906 59.5393 68.0157ZM55.901 78.7528C55.7504 78.7989 55.5287 78.824 55.2892 78.8334L55.2662 78.7779L55.1564 78.6974C55.1564 78.6974 54.8301 78.1651 55.1721 77.958C55.3143 77.8723 55.7944 77.8493 56.3382 77.5711C56.4312 77.8493 56.5745 78.0605 56.6404 78.094C56.7565 78.1505 57.3034 78.4799 57.4498 78.5698L57.6287 78.7288V78.7633C57.6099 78.757 57.59 78.757 57.5732 78.7518C57.1319 78.62 56.4072 78.596 55.9 78.7518L55.901 78.7528ZM57.2564 77.8336C57.1518 77.7552 57.2449 77.4822 57.1643 77.1214C57.5429 76.8328 57.8954 76.4124 58.0773 75.8727C58.2844 75.9805 58.4674 76.0767 58.5354 76.0913C58.5845 76.1018 58.7738 76.0945 58.9872 76.0809C58.9736 76.1771 58.96 76.2618 58.9474 76.3245C58.8418 76.9478 58.3545 78.2205 57.9905 78.7225L57.9571 78.7027C57.956 78.7027 57.3693 77.9225 57.2564 77.8336ZM58.7173 75.7368C58.5427 75.696 58.3796 75.5193 58.1903 75.2714C58.1871 75.1857 58.1746 75.0884 58.1516 74.9838C58.3869 74.9713 58.5877 74.964 58.6515 74.9409C58.7069 74.9232 58.9025 74.7924 59.1032 74.6544C59.0907 75.0581 59.0583 75.4471 59.0238 75.7577C58.9035 75.7535 58.7895 75.7483 58.7173 75.7368ZM97.2694 73.9129C96.4318 73.9129 85.8693 73.9129 72.9025 73.9129C72.8251 73.2729 72.6912 72.6245 72.4988 71.9709C72.457 71.8287 72.4151 71.6865 72.3681 71.5442C72.3608 71.5149 72.1809 71.0203 72.1809 71.0203C72.1798 71.0161 72.0983 70.8122 72.0983 70.8122L71.956 70.4629L71.864 70.2631C71.8745 70.283 71.703 69.918 71.703 69.918C71.7092 69.9264 71.6005 69.7057 71.6005 69.7057C71.6245 69.7622 71.4269 69.3648 71.4269 69.3648L71.3631 69.2519C71.362 69.2445 71.0776 68.7488 71.0776 68.7488L70.997 68.6202C70.9834 68.5982 70.768 68.2469 70.768 68.2469C70.7712 68.2563 70.631 68.044 70.631 68.044C70.63 68.0377 70.4459 67.7689 70.4459 67.7689C70.4375 67.7532 70.3037 67.564 70.3037 67.564C70.3047 67.5692 70.06 67.2377 70.06 67.2377C70.0401 67.2126 69.9397 67.0787 69.9397 67.0787C69.9638 67.1069 69.5873 66.6363 69.5873 66.6363L69.5131 66.5527C69.5037 66.5454 69.1951 66.1846 69.1951 66.1846L69.0571 66.0319L68.7381 65.6993L68.6346 65.5947C68.6294 65.5905 68.3491 65.3166 68.3491 65.3166C68.3324 65.2988 68.1954 65.1701 68.1954 65.1701C68.2111 65.1848 67.753 64.7748 67.753 64.7748C67.7321 64.7539 67.297 64.3942 67.297 64.3942C67.3117 64.4057 67.1956 64.3136 67.1956 64.3136C67.1443 64.2739 66.8118 64.0261 66.8118 64.0261C66.8055 64.0219 66.6371 63.8985 66.6371 63.8985C66.6319 63.8953 66.314 63.6788 66.314 63.6788C66.2774 63.6527 66.1404 63.5617 66.1404 63.5617C66.131 63.5565 65.6112 63.2375 65.6112 63.2375L65.0935 62.9468L64.99 62.8956C64.9409 62.8684 64.5456 62.677 64.5456 62.677C64.5309 62.6738 64.3291 62.5797 64.3291 62.5797C64.3437 62.587 63.9714 62.4281 63.9714 62.4281L63.7602 62.3444L63.3544 62.198C63.3178 62.1844 63.1954 62.1426 63.1954 62.1426C63.1912 62.1405 62.5429 61.947 62.5429 61.947L62.4665 61.9334C62.4812 61.9376 61.998 61.8257 61.998 61.8257L61.7878 61.7828L61.3768 61.7159L61.152 61.6835L60.7179 61.6385C60.6813 61.6343 60.514 61.6239 60.514 61.6239L59.8834 61.6009L59.2434 61.6239L59.0823 61.6354C59.0447 61.6396 58.6138 61.6835 58.6138 61.6835L58.3858 61.7159L57.9717 61.7828C57.9215 61.7922 57.7667 61.8257 57.7667 61.8257L57.2815 61.9366L57.1738 61.9617C57.1612 61.9669 56.5735 62.1395 56.5735 62.1395L56.4469 62.1834C56.4145 62.1949 55.9962 62.3465 55.9962 62.3465C55.9847 62.3528 55.7839 62.4312 55.7839 62.4312C55.7902 62.427 55.4179 62.586 55.4179 62.586L55.2181 62.678L54.8291 62.8663C54.7925 62.884 54.6639 62.951 54.6639 62.951C54.6754 62.9447 54.1472 63.2365 54.1472 63.2365L54.1023 63.2605L54.0416 63.3003L53.6264 63.5596L53.5124 63.6349C53.4643 63.6653 53.1276 63.8964 53.1276 63.8964C53.114 63.9058 52.9529 64.024 52.9529 64.024C52.9488 64.025 52.5691 64.3147 52.5691 64.3147L52.4698 64.3942L52.0232 64.7612C52.0054 64.7759 51.5599 65.1775 51.5599 65.1775C51.5526 65.1848 51.4188 65.3124 51.4188 65.3124L51.1312 65.5947C51.1259 65.6021 50.991 65.7349 50.991 65.7349C50.9733 65.7527 50.7108 66.0329 50.7108 66.0329C50.6972 66.0486 50.557 66.2002 50.557 66.2002C50.5623 66.1971 50.2611 66.5412 50.2611 66.5412C50.2402 66.5663 50.1669 66.6541 50.1669 66.6541C50.1732 66.6478 49.8062 67.1038 49.8062 67.1038L49.734 67.1979C49.7037 67.2387 49.4579 67.5713 49.4579 67.5713C49.4474 67.5911 49.324 67.7606 49.324 67.7606L49.1138 68.0733L48.9967 68.2531C48.9998 68.2458 48.7792 68.5993 48.7792 68.5993L48.6851 68.7541C48.6882 68.7478 48.4027 69.2539 48.4027 69.2539L48.3849 69.2811L48.1371 69.7622L48.0503 69.9463L47.8892 70.2893C47.8756 70.3175 47.8035 70.4859 47.8035 70.4859C47.8003 70.4901 47.6581 70.8331 47.6581 70.8331L47.588 71.0109C47.5828 71.0245 47.4134 71.4909 47.4134 71.4909C47.358 71.6551 47.3098 71.8161 47.2628 71.9782C47.0672 72.6465 46.9365 73.2896 46.8622 73.9203C33.6424 73.9203 22.786 73.9203 21.9358 73.9203C21.9358 71.7293 21.9358 21.1152 21.9358 18.9243C24.1644 18.9243 95.0461 18.9243 97.2736 18.9243C97.2694 21.1079 97.2694 71.722 97.2694 73.9129Z" fill="#14142B"/>
<path d="M60.9731 64.7086C60.7618 64.6145 60.4313 64.557 60.1532 64.535C60.1532 64.5068 60.1552 64.3897 60.1552 64.3897H60.3602L60.3707 64.0958H60.1678L60.172 63.8438H59.7108V64.0958H59.4985V64.3897H59.7108C59.7108 64.3897 59.7108 64.5099 59.7108 64.535C59.4378 64.557 59.099 64.6145 58.8898 64.7086C58.2519 64.5873 57.6391 64.8247 57.3515 65.0977C57.1109 65.3246 57.0942 65.5714 57.113 65.7753C57.1298 65.9657 57.2385 66.2417 57.3358 66.4164L57.3828 66.5137C57.3985 66.4666 57.4236 66.4227 57.4456 66.3861C57.5178 66.2846 57.591 66.2919 57.6004 66.3997C57.6161 66.5011 57.5711 66.6611 57.5073 66.7646L57.9016 67.6023C58.1076 67.2227 59.8091 67.2154 59.8854 67.2154C59.9649 67.2154 61.7762 67.2227 61.8787 67.6431L62.3211 66.7584C62.2573 66.6569 62.2186 66.5021 62.2353 66.4007C62.25 66.293 62.3211 66.2857 62.3891 66.3871C62.41 66.4237 62.434 66.4655 62.4476 66.5147L62.4978 66.4174C62.5972 66.2428 62.7143 65.9657 62.73 65.7764C62.7519 65.5724 62.7436 65.3267 62.5062 65.0987C62.2155 64.8247 61.6099 64.5863 60.9731 64.7086ZM61.2387 65.9144C61.3401 65.9458 61.4081 66.0629 61.4018 66.1738C61.3914 66.2836 61.3067 66.3484 61.2125 66.316C61.1132 66.2815 61.041 66.1633 61.0504 66.0545C61.0525 65.9437 61.1404 65.8789 61.2387 65.9144ZM59.9179 65.7596C60.0287 65.7596 60.1239 65.8527 60.1207 65.9615C60.1176 66.0744 60.0245 66.1623 59.9105 66.1623C59.7976 66.1623 59.7056 66.0734 59.7056 65.9615C59.7066 65.8538 59.7997 65.7596 59.9179 65.7596ZM58.6012 65.9144C58.6985 65.8778 58.7842 65.9437 58.7894 66.0535C58.7936 66.1633 58.7194 66.2804 58.6232 66.3149C58.5259 66.3474 58.4422 66.2836 58.4349 66.1727C58.4265 66.0629 58.5018 65.9458 58.6012 65.9144ZM57.8576 66.8494C57.8231 66.8828 57.7008 66.9477 57.6882 66.888C57.7227 66.8556 57.7478 66.8295 57.7698 66.7772C57.798 66.7186 57.8346 66.6517 57.8545 66.5638C57.8754 66.4624 57.8786 66.3516 57.8639 66.2668C57.8472 66.178 57.8148 66.1257 57.774 66.1152C57.7395 66.1047 57.7039 66.1257 57.6652 66.1748C57.6066 66.0598 57.568 65.9311 57.5512 65.7795C57.5481 65.7753 57.5481 65.7711 57.5481 65.7711C57.5376 65.676 57.546 65.54 57.6976 65.3748C57.8545 65.219 58.1756 65.0673 58.4726 65.0548C58.3941 65.1782 58.3586 65.3392 58.3565 65.4919C58.3554 65.586 58.3743 65.7032 58.3973 65.8151C58.3774 65.8538 58.3617 65.8977 58.3617 65.9385C58.3502 65.9385 58.3345 65.9385 58.322 65.9406C58.1975 65.974 58.1055 66.1319 58.118 66.294C58.1327 66.4499 58.2373 66.5471 58.3617 66.5262C58.4109 66.5168 58.4736 66.4875 58.5374 66.4457C58.5384 66.5074 58.4736 66.6182 58.3816 66.6506C58.2561 66.6925 58.1306 66.7061 58.0386 66.6308C58.0145 66.7082 57.9674 66.7479 57.8576 66.8494ZM58.3931 67.1934C58.1745 67.2436 57.9894 67.206 57.981 67.1024C57.9737 67.0052 58.1463 66.8786 58.3732 66.8305C58.597 66.7793 58.7842 66.8201 58.7894 66.9173C58.7947 67.0198 58.6158 67.1401 58.3931 67.1934ZM59.2234 66.3599C59.2098 66.4363 59.0321 66.5001 58.8836 66.4969C58.8281 66.4938 58.7706 66.4404 58.7643 66.3787C58.8166 66.3861 58.8773 66.3787 58.9379 66.3652C58.9892 66.3505 59.0457 66.3118 59.0833 66.2553C59.1325 66.1853 59.1576 66.0964 59.1555 66.0117C59.1544 65.9291 59.1199 65.8569 59.0718 65.8119C59.0237 65.7785 58.9745 65.7649 58.9149 65.7806C58.8982 65.7847 58.8836 65.7931 58.87 65.7994C58.8574 65.7324 58.8166 65.6854 58.757 65.6624C58.7487 65.6007 58.7486 65.54 58.756 65.4846C58.7737 65.3256 58.8961 65.1039 59.168 65.0265L59.2015 65.0171C59.3353 64.9795 59.4755 64.9345 59.7056 64.9209V65.6017C59.6522 65.6394 59.6188 65.6906 59.6093 65.7492C59.5947 65.7481 59.5801 65.746 59.5633 65.746C59.4138 65.7419 59.2935 65.8736 59.2966 66.0368C59.2966 66.0943 59.3155 66.1549 59.3468 66.202C59.3604 66.2282 59.3772 66.2501 59.3991 66.2689C59.4483 66.3139 59.511 66.338 59.5727 66.3348C59.5968 66.3338 59.6188 66.3317 59.6407 66.3317C59.6491 66.3275 59.6554 66.3275 59.6627 66.3265C59.7014 66.3223 59.738 66.3139 59.7683 66.3034C59.7683 66.3495 59.7401 66.4112 59.693 66.4404C59.693 66.4404 59.6815 66.4467 59.6794 66.4509H59.6773C59.6669 66.4509 59.6585 66.4551 59.6533 66.4572C59.647 66.4572 59.6418 66.4572 59.6355 66.4582C59.5539 66.4624 59.2987 66.4363 59.2234 66.3484C59.2234 66.3484 59.2234 66.3505 59.2234 66.3599ZM59.8865 67.0564L59.2977 66.8389L59.8823 66.6287L60.4711 66.8452L59.8865 67.0564ZM60.5892 66.3599C60.5892 66.3505 60.5892 66.3474 60.5892 66.3474C60.5087 66.4352 60.2556 66.4614 60.172 66.4572C60.1678 66.4561 60.1605 66.4561 60.1605 66.4561C60.1469 66.4551 60.1406 66.4499 60.1322 66.4499H60.128C60.1249 66.4457 60.1186 66.4425 60.1186 66.4425C60.0705 66.4091 60.0465 66.3474 60.0413 66.3014C60.0737 66.3118 60.1082 66.3212 60.1448 66.3244C60.1542 66.3254 60.1615 66.3254 60.1688 66.3296C60.1898 66.3296 60.2149 66.3306 60.2358 66.3327C60.2996 66.3348 60.3602 66.3118 60.4146 66.2668C60.4313 66.248 60.4491 66.2261 60.4627 66.1999C60.4962 66.1529 60.515 66.0932 60.5181 66.0347C60.5234 65.8715 60.402 65.7398 60.2588 65.744C60.241 65.744 60.2222 65.746 60.2086 65.7471C60.2013 65.6948 60.1709 65.6456 60.127 65.607C60.1312 65.4156 60.1396 65.1479 60.1427 64.9188H60.1469C60.378 64.9335 60.515 64.9774 60.6499 65.015L60.6834 65.0244C60.9532 65.1018 61.0714 65.3235 61.0902 65.4825C61.0933 65.5348 61.0933 65.5954 61.086 65.654C61.0117 65.6718 60.9626 65.7251 60.95 65.7983C60.9354 65.7921 60.9218 65.7837 60.9051 65.7795C60.8455 65.7649 60.79 65.7785 60.7461 65.8109C60.6959 65.8548 60.6604 65.927 60.6604 66.0106C60.653 66.0953 60.6792 66.1853 60.7242 66.2543C60.7639 66.3108 60.8162 66.3495 60.8695 66.3641C60.9323 66.3777 60.9929 66.385 61.0442 66.3777C61.0368 66.4394 60.9825 66.4927 60.9218 66.4959C60.7744 66.5001 60.5966 66.4373 60.5892 66.3599ZM61.3715 67.1934C61.1519 67.1401 60.9741 67.0198 60.9814 66.9173C60.9856 66.8201 61.1738 66.7793 61.4008 66.8305C61.6246 66.8786 61.7961 67.0052 61.7846 67.1024C61.7741 67.206 61.5901 67.2436 61.3715 67.1934ZM62.2918 65.7701C62.2918 65.7701 62.2907 65.7753 62.2907 65.7795C62.2656 65.9385 62.227 66.0734 62.1569 66.1905C62.1569 66.1905 62.1548 66.1832 62.1496 66.18C62.1151 66.1278 62.0753 66.1047 62.0398 66.1152C61.999 66.1257 61.9655 66.179 61.9456 66.2668C61.931 66.3505 61.9331 66.4614 61.9519 66.5638C61.9707 66.6517 62.0094 66.7176 62.0314 66.7772C62.0513 66.8295 62.0753 66.8556 62.114 66.888C62.0994 66.9477 61.9801 66.8828 61.9394 66.8494C61.8348 66.7479 61.7867 66.7082 61.7647 66.6308C61.6758 66.7061 61.543 66.6925 61.4217 66.6506C61.3307 66.6182 61.2627 66.5063 61.269 66.4457C61.3307 66.4875 61.3924 66.5168 61.4437 66.5262C61.566 66.5461 61.6758 66.4499 61.6894 66.294C61.7072 66.1319 61.6173 65.9751 61.4959 65.9406C61.4813 65.9385 61.4646 65.9385 61.4552 65.9385C61.4552 65.905 61.4447 65.8736 61.4322 65.8433C61.4625 65.7241 61.4865 65.5954 61.4865 65.4919C61.4876 65.3392 61.4552 65.1782 61.3788 65.0548C61.68 65.0673 61.999 65.219 62.1454 65.3748C62.2981 65.54 62.3043 65.676 62.2918 65.7701Z" fill="#14142B"/>
</svg>
